<?xml version="1.0" encoding="utf-8" standalone="no"?>
<!DOCTYPE svg PUBLIC "-//W3C//DTD SVG 1.1//EN"
  "http://www.w3.org/Graphics/SVG/1.1/DTD/svg11.dtd">
<svg xmlns:xlink="http://www.w3.org/1999/xlink" width="460.8pt" height="345.6pt" viewBox="0 0 460.8 345.6" xmlns="http://www.w3.org/2000/svg" version="1.1">
 <metadata>
  <rdf:RDF xmlns:dc="http://purl.org/dc/elements/1.1/" xmlns:cc="http://creativecommons.org/ns#" xmlns:rdf="http://www.w3.org/1999/02/22-rdf-syntax-ns#">
   <cc:Work>
    <dc:type rdf:resource="http://purl.org/dc/dcmitype/StillImage"/>
    <dc:date>2022-12-25T20:34:50.527303</dc:date>
    <dc:format>image/svg+xml</dc:format>
    <dc:creator>
     <cc:Agent>
      <dc:title>Matplotlib v3.6.2, https://matplotlib.org/</dc:title>
     </cc:Agent>
    </dc:creator>
   </cc:Work>
  </rdf:RDF>
 </metadata>
 <defs>
  <style type="text/css">*{stroke-linejoin: round; stroke-linecap: butt}</style>
 </defs>
 <g id="figure_1">
  <g id="patch_1">
   <path d="M 0 345.6 
L 460.8 345.6 
L 460.8 0 
L 0 0 
z
" style="fill: #ffffff"/>
  </g>
  <g id="axes_1">
   <g id="patch_2">
    <path d="M 57.6 307.584 
L 414.72 307.584 
L 414.72 41.472 
L 57.6 41.472 
z
" style="fill: #ffffff"/>
   </g>
   <g id="matplotlib.axis_1">
    <g id="xtick_1">
     <g id="line2d_1">
      <defs>
       <path id="m24bd1f30f0" d="M 0 0 
L 0 3.5 
" style="stroke: #000000; stroke-width: 0.8"/>
      </defs>
      <g>
       <use xlink:href="#m24bd1f30f0" x="73.832727" y="307.584" style="stroke: #000000; stroke-width: 0.8"/>
      </g>
     </g>
     <g id="text_1">
      <!-- 0 -->
      <g transform="translate(70.651477 322.182437) scale(0.1 -0.1)">
       <defs>
        <path id="DejaVuSans-30" d="M 2034 4250 
Q 1547 4250 1301 3770 
Q 1056 3291 1056 2328 
Q 1056 1369 1301 889 
Q 1547 409 2034 409 
Q 2525 409 2770 889 
Q 3016 1369 3016 2328 
Q 3016 3291 2770 3770 
Q 2525 4250 2034 4250 
z
M 2034 4750 
Q 2819 4750 3233 4129 
Q 3647 3509 3647 2328 
Q 3647 1150 3233 529 
Q 2819 -91 2034 -91 
Q 1250 -91 836 529 
Q 422 1150 422 2328 
Q 422 3509 836 4129 
Q 1250 4750 2034 4750 
z
" transform="scale(0.015625)"/>
       </defs>
       <use xlink:href="#DejaVuSans-30"/>
      </g>
     </g>
    </g>
    <g id="xtick_2">
     <g id="line2d_2">
      <g>
       <use xlink:href="#m24bd1f30f0" x="137.490481" y="307.584" style="stroke: #000000; stroke-width: 0.8"/>
      </g>
     </g>
     <g id="text_2">
      <!-- 50 -->
      <g transform="translate(131.127981 322.182437) scale(0.1 -0.1)">
       <defs>
        <path id="DejaVuSans-35" d="M 691 4666 
L 3169 4666 
L 3169 4134 
L 1269 4134 
L 1269 2991 
Q 1406 3038 1543 3061 
Q 1681 3084 1819 3084 
Q 2600 3084 3056 2656 
Q 3513 2228 3513 1497 
Q 3513 744 3044 326 
Q 2575 -91 1722 -91 
Q 1428 -91 1123 -41 
Q 819 9 494 109 
L 494 744 
Q 775 591 1075 516 
Q 1375 441 1709 441 
Q 2250 441 2565 725 
Q 2881 1009 2881 1497 
Q 2881 1984 2565 2268 
Q 2250 2553 1709 2553 
Q 1456 2553 1204 2497 
Q 953 2441 691 2322 
L 691 4666 
z
" transform="scale(0.015625)"/>
       </defs>
       <use xlink:href="#DejaVuSans-35"/>
       <use xlink:href="#DejaVuSans-30" x="63.623047"/>
      </g>
     </g>
    </g>
    <g id="xtick_3">
     <g id="line2d_3">
      <g>
       <use xlink:href="#m24bd1f30f0" x="201.148235" y="307.584" style="stroke: #000000; stroke-width: 0.8"/>
      </g>
     </g>
     <g id="text_3">
      <!-- 100 -->
      <g transform="translate(191.604485 322.182437) scale(0.1 -0.1)">
       <defs>
        <path id="DejaVuSans-31" d="M 794 531 
L 1825 531 
L 1825 4091 
L 703 3866 
L 703 4441 
L 1819 4666 
L 2450 4666 
L 2450 531 
L 3481 531 
L 3481 0 
L 794 0 
L 794 531 
z
" transform="scale(0.015625)"/>
       </defs>
       <use xlink:href="#DejaVuSans-31"/>
       <use xlink:href="#DejaVuSans-30" x="63.623047"/>
       <use xlink:href="#DejaVuSans-30" x="127.246094"/>
      </g>
     </g>
    </g>
    <g id="xtick_4">
     <g id="line2d_4">
      <g>
       <use xlink:href="#m24bd1f30f0" x="264.805989" y="307.584" style="stroke: #000000; stroke-width: 0.8"/>
      </g>
     </g>
     <g id="text_4">
      <!-- 150 -->
      <g transform="translate(255.262239 322.182437) scale(0.1 -0.1)">
       <use xlink:href="#DejaVuSans-31"/>
       <use xlink:href="#DejaVuSans-35" x="63.623047"/>
       <use xlink:href="#DejaVuSans-30" x="127.246094"/>
      </g>
     </g>
    </g>
    <g id="xtick_5">
     <g id="line2d_5">
      <g>
       <use xlink:href="#m24bd1f30f0" x="328.463743" y="307.584" style="stroke: #000000; stroke-width: 0.8"/>
      </g>
     </g>
     <g id="text_5">
      <!-- 200 -->
      <g transform="translate(318.919993 322.182437) scale(0.1 -0.1)">
       <defs>
        <path id="DejaVuSans-32" d="M 1228 531 
L 3431 531 
L 3431 0 
L 469 0 
L 469 531 
Q 828 903 1448 1529 
Q 2069 2156 2228 2338 
Q 2531 2678 2651 2914 
Q 2772 3150 2772 3378 
Q 2772 3750 2511 3984 
Q 2250 4219 1831 4219 
Q 1534 4219 1204 4116 
Q 875 4013 500 3803 
L 500 4441 
Q 881 4594 1212 4672 
Q 1544 4750 1819 4750 
Q 2544 4750 2975 4387 
Q 3406 4025 3406 3419 
Q 3406 3131 3298 2873 
Q 3191 2616 2906 2266 
Q 2828 2175 2409 1742 
Q 1991 1309 1228 531 
z
" transform="scale(0.015625)"/>
       </defs>
       <use xlink:href="#DejaVuSans-32"/>
       <use xlink:href="#DejaVuSans-30" x="63.623047"/>
       <use xlink:href="#DejaVuSans-30" x="127.246094"/>
      </g>
     </g>
    </g>
    <g id="xtick_6">
     <g id="line2d_6">
      <g>
       <use xlink:href="#m24bd1f30f0" x="392.121497" y="307.584" style="stroke: #000000; stroke-width: 0.8"/>
      </g>
     </g>
     <g id="text_6">
      <!-- 250 -->
      <g transform="translate(382.577747 322.182437) scale(0.1 -0.1)">
       <use xlink:href="#DejaVuSans-32"/>
       <use xlink:href="#DejaVuSans-35" x="63.623047"/>
       <use xlink:href="#DejaVuSans-30" x="127.246094"/>
      </g>
     </g>
    </g>
    <g id="text_7">
     <!-- Epoch -->
     <g transform="translate(220.849063 335.860562) scale(0.1 -0.1)">
      <defs>
       <path id="DejaVuSans-45" d="M 628 4666 
L 3578 4666 
L 3578 4134 
L 1259 4134 
L 1259 2753 
L 3481 2753 
L 3481 2222 
L 1259 2222 
L 1259 531 
L 3634 531 
L 3634 0 
L 628 0 
L 628 4666 
z
" transform="scale(0.015625)"/>
       <path id="DejaVuSans-70" d="M 1159 525 
L 1159 -1331 
L 581 -1331 
L 581 3500 
L 1159 3500 
L 1159 2969 
Q 1341 3281 1617 3432 
Q 1894 3584 2278 3584 
Q 2916 3584 3314 3078 
Q 3713 2572 3713 1747 
Q 3713 922 3314 415 
Q 2916 -91 2278 -91 
Q 1894 -91 1617 61 
Q 1341 213 1159 525 
z
M 3116 1747 
Q 3116 2381 2855 2742 
Q 2594 3103 2138 3103 
Q 1681 3103 1420 2742 
Q 1159 2381 1159 1747 
Q 1159 1113 1420 752 
Q 1681 391 2138 391 
Q 2594 391 2855 752 
Q 3116 1113 3116 1747 
z
" transform="scale(0.015625)"/>
       <path id="DejaVuSans-6f" d="M 1959 3097 
Q 1497 3097 1228 2736 
Q 959 2375 959 1747 
Q 959 1119 1226 758 
Q 1494 397 1959 397 
Q 2419 397 2687 759 
Q 2956 1122 2956 1747 
Q 2956 2369 2687 2733 
Q 2419 3097 1959 3097 
z
M 1959 3584 
Q 2709 3584 3137 3096 
Q 3566 2609 3566 1747 
Q 3566 888 3137 398 
Q 2709 -91 1959 -91 
Q 1206 -91 779 398 
Q 353 888 353 1747 
Q 353 2609 779 3096 
Q 1206 3584 1959 3584 
z
" transform="scale(0.015625)"/>
       <path id="DejaVuSans-63" d="M 3122 3366 
L 3122 2828 
Q 2878 2963 2633 3030 
Q 2388 3097 2138 3097 
Q 1578 3097 1268 2742 
Q 959 2388 959 1747 
Q 959 1106 1268 751 
Q 1578 397 2138 397 
Q 2388 397 2633 464 
Q 2878 531 3122 666 
L 3122 134 
Q 2881 22 2623 -34 
Q 2366 -91 2075 -91 
Q 1284 -91 818 406 
Q 353 903 353 1747 
Q 353 2603 823 3093 
Q 1294 3584 2113 3584 
Q 2378 3584 2631 3529 
Q 2884 3475 3122 3366 
z
" transform="scale(0.015625)"/>
       <path id="DejaVuSans-68" d="M 3513 2113 
L 3513 0 
L 2938 0 
L 2938 2094 
Q 2938 2591 2744 2837 
Q 2550 3084 2163 3084 
Q 1697 3084 1428 2787 
Q 1159 2491 1159 1978 
L 1159 0 
L 581 0 
L 581 4863 
L 1159 4863 
L 1159 2956 
Q 1366 3272 1645 3428 
Q 1925 3584 2291 3584 
Q 2894 3584 3203 3211 
Q 3513 2838 3513 2113 
z
" transform="scale(0.015625)"/>
      </defs>
      <use xlink:href="#DejaVuSans-45"/>
      <use xlink:href="#DejaVuSans-70" x="63.183594"/>
      <use xlink:href="#DejaVuSans-6f" x="126.660156"/>
      <use xlink:href="#DejaVuSans-63" x="187.841797"/>
      <use xlink:href="#DejaVuSans-68" x="242.822266"/>
     </g>
    </g>
   </g>
   <g id="matplotlib.axis_2">
    <g id="ytick_1">
     <g id="line2d_7">
      <defs>
       <path id="m438b805364" d="M 0 0 
L -3.5 0 
" style="stroke: #000000; stroke-width: 0.8"/>
      </defs>
      <g>
       <use xlink:href="#m438b805364" x="57.6" y="298.849837" style="stroke: #000000; stroke-width: 0.8"/>
      </g>
     </g>
     <g id="text_8">
      <!-- 0 -->
      <g transform="translate(44.2375 302.649055) scale(0.1 -0.1)">
       <use xlink:href="#DejaVuSans-30"/>
      </g>
     </g>
    </g>
    <g id="ytick_2">
     <g id="line2d_8">
      <g>
       <use xlink:href="#m438b805364" x="57.6" y="247.323061" style="stroke: #000000; stroke-width: 0.8"/>
      </g>
     </g>
     <g id="text_9">
      <!-- 2 -->
      <g transform="translate(44.2375 251.12228) scale(0.1 -0.1)">
       <use xlink:href="#DejaVuSans-32"/>
      </g>
     </g>
    </g>
    <g id="ytick_3">
     <g id="line2d_9">
      <g>
       <use xlink:href="#m438b805364" x="57.6" y="195.796286" style="stroke: #000000; stroke-width: 0.8"/>
      </g>
     </g>
     <g id="text_10">
      <!-- 4 -->
      <g transform="translate(44.2375 199.595505) scale(0.1 -0.1)">
       <defs>
        <path id="DejaVuSans-34" d="M 2419 4116 
L 825 1625 
L 2419 1625 
L 2419 4116 
z
M 2253 4666 
L 3047 4666 
L 3047 1625 
L 3713 1625 
L 3713 1100 
L 3047 1100 
L 3047 0 
L 2419 0 
L 2419 1100 
L 313 1100 
L 313 1709 
L 2253 4666 
z
" transform="scale(0.015625)"/>
       </defs>
       <use xlink:href="#DejaVuSans-34"/>
      </g>
     </g>
    </g>
    <g id="ytick_4">
     <g id="line2d_10">
      <g>
       <use xlink:href="#m438b805364" x="57.6" y="144.269511" style="stroke: #000000; stroke-width: 0.8"/>
      </g>
     </g>
     <g id="text_11">
      <!-- 6 -->
      <g transform="translate(44.2375 148.06873) scale(0.1 -0.1)">
       <defs>
        <path id="DejaVuSans-36" d="M 2113 2584 
Q 1688 2584 1439 2293 
Q 1191 2003 1191 1497 
Q 1191 994 1439 701 
Q 1688 409 2113 409 
Q 2538 409 2786 701 
Q 3034 994 3034 1497 
Q 3034 2003 2786 2293 
Q 2538 2584 2113 2584 
z
M 3366 4563 
L 3366 3988 
Q 3128 4100 2886 4159 
Q 2644 4219 2406 4219 
Q 1781 4219 1451 3797 
Q 1122 3375 1075 2522 
Q 1259 2794 1537 2939 
Q 1816 3084 2150 3084 
Q 2853 3084 3261 2657 
Q 3669 2231 3669 1497 
Q 3669 778 3244 343 
Q 2819 -91 2113 -91 
Q 1303 -91 875 529 
Q 447 1150 447 2328 
Q 447 3434 972 4092 
Q 1497 4750 2381 4750 
Q 2619 4750 2861 4703 
Q 3103 4656 3366 4563 
z
" transform="scale(0.015625)"/>
       </defs>
       <use xlink:href="#DejaVuSans-36"/>
      </g>
     </g>
    </g>
    <g id="ytick_5">
     <g id="line2d_11">
      <g>
       <use xlink:href="#m438b805364" x="57.6" y="92.742736" style="stroke: #000000; stroke-width: 0.8"/>
      </g>
     </g>
     <g id="text_12">
      <!-- 8 -->
      <g transform="translate(44.2375 96.541955) scale(0.1 -0.1)">
       <defs>
        <path id="DejaVuSans-38" d="M 2034 2216 
Q 1584 2216 1326 1975 
Q 1069 1734 1069 1313 
Q 1069 891 1326 650 
Q 1584 409 2034 409 
Q 2484 409 2743 651 
Q 3003 894 3003 1313 
Q 3003 1734 2745 1975 
Q 2488 2216 2034 2216 
z
M 1403 2484 
Q 997 2584 770 2862 
Q 544 3141 544 3541 
Q 544 4100 942 4425 
Q 1341 4750 2034 4750 
Q 2731 4750 3128 4425 
Q 3525 4100 3525 3541 
Q 3525 3141 3298 2862 
Q 3072 2584 2669 2484 
Q 3125 2378 3379 2068 
Q 3634 1759 3634 1313 
Q 3634 634 3220 271 
Q 2806 -91 2034 -91 
Q 1263 -91 848 271 
Q 434 634 434 1313 
Q 434 1759 690 2068 
Q 947 2378 1403 2484 
z
M 1172 3481 
Q 1172 3119 1398 2916 
Q 1625 2713 2034 2713 
Q 2441 2713 2670 2916 
Q 2900 3119 2900 3481 
Q 2900 3844 2670 4047 
Q 2441 4250 2034 4250 
Q 1625 4250 1398 4047 
Q 1172 3844 1172 3481 
z
" transform="scale(0.015625)"/>
       </defs>
       <use xlink:href="#DejaVuSans-38"/>
      </g>
     </g>
    </g>
    <g id="text_13">
     <!-- Loss -->
     <g transform="translate(38.157812 185.495187) rotate(-90) scale(0.1 -0.1)">
      <defs>
       <path id="DejaVuSans-4c" d="M 628 4666 
L 1259 4666 
L 1259 531 
L 3531 531 
L 3531 0 
L 628 0 
L 628 4666 
z
" transform="scale(0.015625)"/>
       <path id="DejaVuSans-73" d="M 2834 3397 
L 2834 2853 
Q 2591 2978 2328 3040 
Q 2066 3103 1784 3103 
Q 1356 3103 1142 2972 
Q 928 2841 928 2578 
Q 928 2378 1081 2264 
Q 1234 2150 1697 2047 
L 1894 2003 
Q 2506 1872 2764 1633 
Q 3022 1394 3022 966 
Q 3022 478 2636 193 
Q 2250 -91 1575 -91 
Q 1294 -91 989 -36 
Q 684 19 347 128 
L 347 722 
Q 666 556 975 473 
Q 1284 391 1588 391 
Q 1994 391 2212 530 
Q 2431 669 2431 922 
Q 2431 1156 2273 1281 
Q 2116 1406 1581 1522 
L 1381 1569 
Q 847 1681 609 1914 
Q 372 2147 372 2553 
Q 372 3047 722 3315 
Q 1072 3584 1716 3584 
Q 2034 3584 2315 3537 
Q 2597 3491 2834 3397 
z
" transform="scale(0.015625)"/>
      </defs>
      <use xlink:href="#DejaVuSans-4c"/>
      <use xlink:href="#DejaVuSans-6f" x="53.962891"/>
      <use xlink:href="#DejaVuSans-73" x="115.144531"/>
      <use xlink:href="#DejaVuSans-73" x="167.244141"/>
     </g>
    </g>
   </g>
   <g id="line2d_12">
    <path d="M 73.832727 119.461438 
L 75.105882 125.198984 
L 76.379037 128.760265 
L 77.652193 129.807618 
L 78.925348 134.071487 
L 80.198503 134.646128 
L 81.471658 135.500742 
L 82.744813 139.447328 
L 84.017968 137.698297 
L 85.291123 139.563802 
L 86.564278 142.194192 
L 87.837433 144.207092 
L 89.110588 142.464718 
L 90.383743 147.448326 
L 91.656898 148.280299 
L 92.930053 147.234826 
L 94.203209 149.165048 
L 95.476364 155.682602 
L 96.749519 157.057238 
L 98.022674 157.060579 
L 99.295829 157.692873 
L 100.568984 156.927644 
L 101.842139 159.537039 
L 103.115294 162.74933 
L 104.388449 163.310506 
L 105.661604 168.065699 
L 106.934759 175.791649 
L 108.207914 175.750802 
L 109.48107 171.332805 
L 110.754225 174.573757 
L 112.02738 180.922344 
L 113.300535 178.401339 
L 114.57369 180.529717 
L 115.846845 182.87603 
L 117.12 186.643109 
L 118.393155 185.088683 
L 119.66631 185.579786 
L 120.939465 185.007037 
L 122.21262 188.083887 
L 123.485775 189.905694 
L 124.75893 202.684502 
L 126.032086 193.441853 
L 127.305241 193.268709 
L 128.578396 192.323493 
L 129.851551 195.052114 
L 131.124706 199.667652 
L 132.397861 195.363304 
L 133.671016 202.621314 
L 134.944171 198.64842 
L 136.217326 203.620325 
L 137.490481 203.455609 
L 138.763636 211.469407 
L 140.036791 215.458721 
L 141.309947 214.640181 
L 142.583102 208.1988 
L 143.856257 204.309707 
L 145.129412 213.123022 
L 146.402567 214.327505 
L 147.675722 216.609027 
L 148.948877 214.822441 
L 150.222032 214.136443 
L 151.495187 218.007962 
L 152.768342 221.404804 
L 154.041497 224.363828 
L 155.314652 220.004744 
L 156.587807 224.507574 
L 157.860963 225.168209 
L 159.134118 227.014402 
L 160.407273 228.128253 
L 161.680428 226.625437 
L 162.953583 232.784289 
L 164.226738 224.263129 
L 165.499893 235.765224 
L 166.773048 232.916033 
L 168.046203 232.77193 
L 169.319358 227.189543 
L 170.592513 239.955543 
L 171.865668 236.022212 
L 173.138824 235.138999 
L 174.411979 237.755138 
L 175.685134 235.476454 
L 176.958289 240.776976 
L 178.231444 232.23482 
L 179.504599 239.683972 
L 180.777754 245.836344 
L 182.050909 244.860422 
L 183.324064 239.478789 
L 184.597219 250.083091 
L 185.870374 245.402901 
L 187.143529 247.9965 
L 188.416684 246.622279 
L 189.68984 239.702467 
L 190.962995 250.564289 
L 192.23615 245.146729 
L 193.509305 254.243795 
L 194.78246 253.003037 
L 196.055615 245.129051 
L 197.32877 257.023816 
L 198.601925 260.827021 
L 199.87508 238.800875 
L 201.148235 249.141954 
L 202.42139 252.22306 
L 203.694545 255.733396 
L 204.967701 255.795739 
L 206.240856 259.495868 
L 207.514011 254.951773 
L 208.787166 252.524333 
L 210.060321 256.136947 
L 211.333476 266.412815 
L 212.606631 257.837951 
L 213.879786 263.487949 
L 215.152941 261.690339 
L 216.426096 267.866913 
L 217.699251 254.578424 
L 218.972406 265.690436 
L 220.245561 262.34352 
L 221.518717 262.395424 
L 222.791872 261.806217 
L 224.065027 256.388442 
L 225.338182 265.987347 
L 226.611337 265.467138 
L 227.884492 268.051564 
L 229.157647 261.018261 
L 230.430802 266.726566 
L 231.703957 273.863665 
L 232.977112 269.772817 
L 234.250267 265.183476 
L 235.523422 263.994177 
L 236.796578 266.959188 
L 238.069733 264.651222 
L 239.342888 270.511237 
L 240.616043 271.117486 
L 241.889198 267.516334 
L 243.162353 268.920988 
L 244.435508 270.974186 
L 245.708663 265.968045 
L 246.981818 270.701795 
L 248.254973 267.72602 
L 249.528128 270.459741 
L 250.801283 275.107277 
L 252.074439 272.726466 
L 253.347594 266.665651 
L 254.620749 271.922279 
L 255.893904 263.472513 
L 257.167059 278.047804 
L 258.440214 268.621791 
L 259.713369 274.759517 
L 260.986524 271.668251 
L 262.259679 272.695653 
L 263.532834 274.574074 
L 264.805989 274.024559 
L 266.079144 272.928382 
L 267.352299 271.673911 
L 268.625455 278.149412 
L 269.89861 276.130719 
L 271.171765 280.536026 
L 272.44492 274.875748 
L 273.718075 271.766386 
L 274.99123 278.120971 
L 276.264385 279.872976 
L 278.810695 275.22507 
L 280.08385 278.222664 
L 281.357005 277.705164 
L 282.63016 283.258582 
L 283.903316 277.778575 
L 285.176471 288.723012 
L 286.449626 277.811406 
L 287.722781 276.868469 
L 288.995936 281.116052 
L 290.269091 278.19586 
L 291.542246 280.535945 
L 292.815401 278.389138 
L 294.088556 283.76943 
L 295.361711 283.856116 
L 296.634866 285.211963 
L 297.908021 275.969362 
L 299.181176 285.105233 
L 300.454332 283.11095 
L 301.727487 284.217249 
L 303.000642 279.084877 
L 304.273797 283.809524 
L 305.546952 283.944799 
L 306.820107 284.701982 
L 308.093262 282.925736 
L 309.366417 283.330717 
L 310.639572 283.247867 
L 311.912727 285.266008 
L 313.185882 285.082331 
L 314.459037 281.296528 
L 317.005348 285.327326 
L 318.278503 282.866459 
L 319.551658 286.847128 
L 320.824813 287.459416 
L 322.097968 288.726545 
L 324.644278 288.297935 
L 325.917433 286.150468 
L 327.190588 287.085533 
L 328.463743 282.849714 
L 329.736898 290.57187 
L 331.010053 292.070474 
L 332.283209 284.967995 
L 333.556364 283.486895 
L 334.829519 289.915915 
L 336.102674 291.205362 
L 337.375829 283.192408 
L 338.648984 288.365155 
L 339.922139 290.703937 
L 341.195294 287.089921 
L 342.468449 286.979952 
L 343.741604 288.682989 
L 345.014759 290.014629 
L 346.287914 292.736667 
L 347.56107 289.000533 
L 348.834225 290.840227 
L 350.10738 285.963476 
L 351.380535 291.440426 
L 352.65369 290.192224 
L 353.926845 289.362916 
L 355.2 287.145072 
L 356.473155 285.944247 
L 357.74631 287.526974 
L 359.019465 292.769132 
L 360.29262 290.744789 
L 361.565775 293.828378 
L 362.83893 293.82589 
L 364.112086 286.59648 
L 366.658396 294.369536 
L 367.931551 291.433973 
L 369.204706 293.004805 
L 370.477861 292.645721 
L 371.751016 292.879219 
L 373.024171 290.529292 
L 374.297326 290.440017 
L 375.570481 290.635635 
L 376.843636 295.467415 
L 378.116791 287.637131 
L 379.389947 288.719304 
L 380.663102 286.36069 
L 381.936257 289.776841 
L 383.209412 295.488 
L 384.482567 293.341613 
L 385.755722 289.754761 
L 387.028877 293.43752 
L 388.302032 292.42254 
L 389.575187 292.377177 
L 390.848342 289.139578 
L 392.121497 290.305116 
L 393.394652 294.055004 
L 394.667807 290.383603 
L 397.214118 293.464428 
L 398.487273 293.581113 
L 398.487273 293.581113 
" clip-path="url(#p3b42411607)" style="fill: none; stroke: #1f77b4; stroke-width: 1.5; stroke-linecap: square"/>
   </g>
   <g id="line2d_13">
    <path d="M 73.832727 131.219935 
L 75.105882 151.258136 
L 76.379037 151.264148 
L 77.652193 150.672102 
L 78.925348 149.953952 
L 81.471658 150.124693 
L 82.744813 150.140744 
L 84.017968 150.454517 
L 86.564278 150.591696 
L 87.837433 150.75408 
L 89.110588 150.465019 
L 90.383743 151.137179 
L 94.203209 150.761835 
L 95.476364 150.443094 
L 96.749519 150.260648 
L 98.022674 150.315741 
L 99.295829 150.111067 
L 100.568984 149.781086 
L 101.842139 149.203051 
L 103.115294 149.439049 
L 105.661604 148.568666 
L 106.934759 148.666322 
L 109.48107 147.744469 
L 110.754225 147.716483 
L 112.02738 147.063891 
L 114.57369 146.20102 
L 115.846845 145.630743 
L 117.12 145.44107 
L 118.393155 145.064061 
L 119.66631 144.328068 
L 120.939465 144.392136 
L 122.21262 144.266595 
L 123.485775 142.72031 
L 124.75893 143.068869 
L 126.032086 142.369743 
L 127.305241 142.218336 
L 128.578396 142.280745 
L 129.851551 141.990393 
L 131.124706 141.165209 
L 132.397861 140.959689 
L 133.671016 140.306096 
L 134.944171 139.879239 
L 136.217326 139.680957 
L 137.490481 138.442763 
L 138.763636 138.102606 
L 140.036791 137.053721 
L 142.583102 136.635927 
L 143.856257 136.075083 
L 145.129412 134.425851 
L 146.402567 134.63242 
L 147.675722 133.820062 
L 148.948877 134.01163 
L 150.222032 133.587284 
L 151.495187 132.802642 
L 152.768342 132.816878 
L 154.041497 132.511885 
L 155.314652 132.571266 
L 156.587807 131.289009 
L 157.860963 131.221049 
L 159.134118 129.421696 
L 160.407273 130.196498 
L 161.680428 130.605628 
L 162.953583 129.428659 
L 164.226738 127.384252 
L 165.499893 128.30861 
L 166.773048 127.321243 
L 168.046203 127.851644 
L 169.319358 126.052246 
L 170.592513 126.741917 
L 171.865668 126.870245 
L 173.138824 126.331518 
L 174.411979 125.001728 
L 175.685134 125.255865 
L 176.958289 123.051078 
L 178.231444 122.88924 
L 179.504599 122.187131 
L 182.050909 121.704808 
L 183.324064 120.588977 
L 184.597219 120.060242 
L 185.870374 119.311428 
L 187.143529 118.850081 
L 188.416684 118.116265 
L 189.68984 116.361623 
L 190.962995 117.092033 
L 192.23615 117.585099 
L 193.509305 117.11831 
L 194.78246 114.68336 
L 196.055615 114.763246 
L 197.32877 114.115935 
L 198.601925 114.546971 
L 201.148235 113.751393 
L 202.42139 111.734123 
L 203.694545 111.466117 
L 204.967701 112.102652 
L 206.240856 110.359283 
L 208.787166 110.016815 
L 210.060321 109.159564 
L 211.333476 107.978726 
L 212.606631 109.923703 
L 213.879786 108.683924 
L 215.152941 107.81654 
L 217.699251 106.605343 
L 218.972406 107.340611 
L 220.245561 107.752255 
L 221.518717 106.582241 
L 222.791872 105.739915 
L 224.065027 105.777397 
L 225.338182 104.787315 
L 226.611337 104.627479 
L 227.884492 102.886704 
L 229.157647 103.034898 
L 230.430802 102.517055 
L 231.703957 101.617264 
L 232.977112 102.536926 
L 234.250267 101.680753 
L 235.523422 99.316594 
L 236.796578 100.969084 
L 238.069733 99.902393 
L 239.342888 99.151407 
L 241.889198 97.104823 
L 243.162353 98.120427 
L 244.435508 98.752828 
L 245.708663 99.536427 
L 246.981818 96.65679 
L 248.254973 96.856916 
L 249.528128 94.502177 
L 250.801283 94.758023 
L 252.074439 96.214934 
L 253.347594 93.60517 
L 254.620749 92.268545 
L 255.893904 95.315842 
L 257.167059 91.635439 
L 258.440214 92.880529 
L 259.713369 89.819551 
L 260.986524 92.374774 
L 262.259679 89.926948 
L 263.532834 91.774434 
L 264.805989 89.114406 
L 266.079144 89.424783 
L 267.352299 91.725245 
L 268.625455 90.13763 
L 269.89861 89.853749 
L 271.171765 89.148332 
L 272.44492 89.095166 
L 273.718075 89.515473 
L 274.99123 89.17556 
L 276.264385 89.868039 
L 277.53754 89.61682 
L 278.810695 86.459436 
L 280.08385 88.691069 
L 281.357005 86.276266 
L 282.63016 85.902311 
L 283.903316 85.104657 
L 285.176471 85.979221 
L 286.449626 83.38787 
L 288.995936 84.154196 
L 290.269091 83.004819 
L 291.542246 83.699904 
L 292.815401 83.347826 
L 294.088556 83.321542 
L 295.361711 82.028618 
L 299.181176 82.766641 
L 300.454332 81.653547 
L 301.727487 81.141649 
L 303.000642 79.570334 
L 304.273797 77.513558 
L 305.546952 77.817256 
L 306.820107 80.279907 
L 308.093262 76.792322 
L 309.366417 78.92303 
L 310.639572 76.109901 
L 311.912727 76.270924 
L 313.185882 77.321394 
L 314.459037 78.591002 
L 315.732193 75.358993 
L 317.005348 76.873315 
L 318.278503 74.868973 
L 319.551658 75.96825 
L 320.824813 76.183217 
L 322.097968 75.71962 
L 323.371123 73.384653 
L 324.644278 74.378816 
L 325.917433 73.535025 
L 327.190588 70.535768 
L 328.463743 72.285945 
L 329.736898 71.147301 
L 331.010053 70.970374 
L 332.283209 71.275919 
L 333.556364 69.936328 
L 334.829519 68.984303 
L 336.102674 69.796219 
L 337.375829 67.604922 
L 338.648984 66.823284 
L 339.922139 67.382737 
L 341.195294 69.613296 
L 342.468449 64.696208 
L 343.741604 66.949534 
L 345.014759 67.251462 
L 346.287914 66.822601 
L 347.56107 63.598967 
L 348.834225 65.564033 
L 350.10738 65.146922 
L 351.380535 64.112692 
L 352.65369 65.185217 
L 353.926845 65.343312 
L 355.2 66.602222 
L 356.473155 65.156792 
L 357.74631 64.220185 
L 359.019465 64.046873 
L 360.29262 65.518643 
L 361.565775 63.952567 
L 362.83893 62.894815 
L 364.112086 64.878569 
L 365.385241 62.791702 
L 366.658396 62.194749 
L 367.931551 61.997597 
L 369.204706 63.302527 
L 370.477861 62.956695 
L 371.751016 60.663798 
L 373.024171 61.303274 
L 375.570481 61.376185 
L 376.843636 62.049759 
L 378.116791 59.060954 
L 379.389947 60.627233 
L 380.663102 58.688942 
L 381.936257 60.02441 
L 383.209412 61.030897 
L 384.482567 58.919767 
L 385.755722 56.573688 
L 387.028877 60.276657 
L 388.302032 58.125703 
L 389.575187 55.60947 
L 390.848342 54.756408 
L 392.121497 57.862718 
L 393.394652 59.174779 
L 394.667807 56.620035 
L 395.940963 56.656782 
L 397.214118 53.568 
L 398.487273 55.722227 
L 398.487273 55.722227 
" clip-path="url(#p3b42411607)" style="fill: none; stroke: #ff7f0e; stroke-width: 1.5; stroke-linecap: square"/>
   </g>
   <g id="patch_3">
    <path d="M 57.6 307.584 
L 57.6 41.472 
" style="fill: none; stroke: #000000; stroke-width: 0.8; stroke-linejoin: miter; stroke-linecap: square"/>
   </g>
   <g id="patch_4">
    <path d="M 414.72 307.584 
L 414.72 41.472 
" style="fill: none; stroke: #000000; stroke-width: 0.8; stroke-linejoin: miter; stroke-linecap: square"/>
   </g>
   <g id="patch_5">
    <path d="M 57.6 307.584 
L 414.72 307.584 
" style="fill: none; stroke: #000000; stroke-width: 0.8; stroke-linejoin: miter; stroke-linecap: square"/>
   </g>
   <g id="patch_6">
    <path d="M 57.6 41.472 
L 414.72 41.472 
" style="fill: none; stroke: #000000; stroke-width: 0.8; stroke-linejoin: miter; stroke-linecap: square"/>
   </g>
   <g id="text_14">
    <!-- LSTM, Learning Rate=0.0001 -->
    <g transform="translate(148.619062 35.472) scale(0.12 -0.12)">
     <defs>
      <path id="DejaVuSans-53" d="M 3425 4513 
L 3425 3897 
Q 3066 4069 2747 4153 
Q 2428 4238 2131 4238 
Q 1616 4238 1336 4038 
Q 1056 3838 1056 3469 
Q 1056 3159 1242 3001 
Q 1428 2844 1947 2747 
L 2328 2669 
Q 3034 2534 3370 2195 
Q 3706 1856 3706 1288 
Q 3706 609 3251 259 
Q 2797 -91 1919 -91 
Q 1588 -91 1214 -16 
Q 841 59 441 206 
L 441 856 
Q 825 641 1194 531 
Q 1563 422 1919 422 
Q 2459 422 2753 634 
Q 3047 847 3047 1241 
Q 3047 1584 2836 1778 
Q 2625 1972 2144 2069 
L 1759 2144 
Q 1053 2284 737 2584 
Q 422 2884 422 3419 
Q 422 4038 858 4394 
Q 1294 4750 2059 4750 
Q 2388 4750 2728 4690 
Q 3069 4631 3425 4513 
z
" transform="scale(0.015625)"/>
      <path id="DejaVuSans-54" d="M -19 4666 
L 3928 4666 
L 3928 4134 
L 2272 4134 
L 2272 0 
L 1638 0 
L 1638 4134 
L -19 4134 
L -19 4666 
z
" transform="scale(0.015625)"/>
      <path id="DejaVuSans-4d" d="M 628 4666 
L 1569 4666 
L 2759 1491 
L 3956 4666 
L 4897 4666 
L 4897 0 
L 4281 0 
L 4281 4097 
L 3078 897 
L 2444 897 
L 1241 4097 
L 1241 0 
L 628 0 
L 628 4666 
z
" transform="scale(0.015625)"/>
      <path id="DejaVuSans-2c" d="M 750 794 
L 1409 794 
L 1409 256 
L 897 -744 
L 494 -744 
L 750 256 
L 750 794 
z
" transform="scale(0.015625)"/>
      <path id="DejaVuSans-20" transform="scale(0.015625)"/>
      <path id="DejaVuSans-65" d="M 3597 1894 
L 3597 1613 
L 953 1613 
Q 991 1019 1311 708 
Q 1631 397 2203 397 
Q 2534 397 2845 478 
Q 3156 559 3463 722 
L 3463 178 
Q 3153 47 2828 -22 
Q 2503 -91 2169 -91 
Q 1331 -91 842 396 
Q 353 884 353 1716 
Q 353 2575 817 3079 
Q 1281 3584 2069 3584 
Q 2775 3584 3186 3129 
Q 3597 2675 3597 1894 
z
M 3022 2063 
Q 3016 2534 2758 2815 
Q 2500 3097 2075 3097 
Q 1594 3097 1305 2825 
Q 1016 2553 972 2059 
L 3022 2063 
z
" transform="scale(0.015625)"/>
      <path id="DejaVuSans-61" d="M 2194 1759 
Q 1497 1759 1228 1600 
Q 959 1441 959 1056 
Q 959 750 1161 570 
Q 1363 391 1709 391 
Q 2188 391 2477 730 
Q 2766 1069 2766 1631 
L 2766 1759 
L 2194 1759 
z
M 3341 1997 
L 3341 0 
L 2766 0 
L 2766 531 
Q 2569 213 2275 61 
Q 1981 -91 1556 -91 
Q 1019 -91 701 211 
Q 384 513 384 1019 
Q 384 1609 779 1909 
Q 1175 2209 1959 2209 
L 2766 2209 
L 2766 2266 
Q 2766 2663 2505 2880 
Q 2244 3097 1772 3097 
Q 1472 3097 1187 3025 
Q 903 2953 641 2809 
L 641 3341 
Q 956 3463 1253 3523 
Q 1550 3584 1831 3584 
Q 2591 3584 2966 3190 
Q 3341 2797 3341 1997 
z
" transform="scale(0.015625)"/>
      <path id="DejaVuSans-72" d="M 2631 2963 
Q 2534 3019 2420 3045 
Q 2306 3072 2169 3072 
Q 1681 3072 1420 2755 
Q 1159 2438 1159 1844 
L 1159 0 
L 581 0 
L 581 3500 
L 1159 3500 
L 1159 2956 
Q 1341 3275 1631 3429 
Q 1922 3584 2338 3584 
Q 2397 3584 2469 3576 
Q 2541 3569 2628 3553 
L 2631 2963 
z
" transform="scale(0.015625)"/>
      <path id="DejaVuSans-6e" d="M 3513 2113 
L 3513 0 
L 2938 0 
L 2938 2094 
Q 2938 2591 2744 2837 
Q 2550 3084 2163 3084 
Q 1697 3084 1428 2787 
Q 1159 2491 1159 1978 
L 1159 0 
L 581 0 
L 581 3500 
L 1159 3500 
L 1159 2956 
Q 1366 3272 1645 3428 
Q 1925 3584 2291 3584 
Q 2894 3584 3203 3211 
Q 3513 2838 3513 2113 
z
" transform="scale(0.015625)"/>
      <path id="DejaVuSans-69" d="M 603 3500 
L 1178 3500 
L 1178 0 
L 603 0 
L 603 3500 
z
M 603 4863 
L 1178 4863 
L 1178 4134 
L 603 4134 
L 603 4863 
z
" transform="scale(0.015625)"/>
      <path id="DejaVuSans-67" d="M 2906 1791 
Q 2906 2416 2648 2759 
Q 2391 3103 1925 3103 
Q 1463 3103 1205 2759 
Q 947 2416 947 1791 
Q 947 1169 1205 825 
Q 1463 481 1925 481 
Q 2391 481 2648 825 
Q 2906 1169 2906 1791 
z
M 3481 434 
Q 3481 -459 3084 -895 
Q 2688 -1331 1869 -1331 
Q 1566 -1331 1297 -1286 
Q 1028 -1241 775 -1147 
L 775 -588 
Q 1028 -725 1275 -790 
Q 1522 -856 1778 -856 
Q 2344 -856 2625 -561 
Q 2906 -266 2906 331 
L 2906 616 
Q 2728 306 2450 153 
Q 2172 0 1784 0 
Q 1141 0 747 490 
Q 353 981 353 1791 
Q 353 2603 747 3093 
Q 1141 3584 1784 3584 
Q 2172 3584 2450 3431 
Q 2728 3278 2906 2969 
L 2906 3500 
L 3481 3500 
L 3481 434 
z
" transform="scale(0.015625)"/>
      <path id="DejaVuSans-52" d="M 2841 2188 
Q 3044 2119 3236 1894 
Q 3428 1669 3622 1275 
L 4263 0 
L 3584 0 
L 2988 1197 
Q 2756 1666 2539 1819 
Q 2322 1972 1947 1972 
L 1259 1972 
L 1259 0 
L 628 0 
L 628 4666 
L 2053 4666 
Q 2853 4666 3247 4331 
Q 3641 3997 3641 3322 
Q 3641 2881 3436 2590 
Q 3231 2300 2841 2188 
z
M 1259 4147 
L 1259 2491 
L 2053 2491 
Q 2509 2491 2742 2702 
Q 2975 2913 2975 3322 
Q 2975 3731 2742 3939 
Q 2509 4147 2053 4147 
L 1259 4147 
z
" transform="scale(0.015625)"/>
      <path id="DejaVuSans-74" d="M 1172 4494 
L 1172 3500 
L 2356 3500 
L 2356 3053 
L 1172 3053 
L 1172 1153 
Q 1172 725 1289 603 
Q 1406 481 1766 481 
L 2356 481 
L 2356 0 
L 1766 0 
Q 1100 0 847 248 
Q 594 497 594 1153 
L 594 3053 
L 172 3053 
L 172 3500 
L 594 3500 
L 594 4494 
L 1172 4494 
z
" transform="scale(0.015625)"/>
      <path id="DejaVuSans-3d" d="M 678 2906 
L 4684 2906 
L 4684 2381 
L 678 2381 
L 678 2906 
z
M 678 1631 
L 4684 1631 
L 4684 1100 
L 678 1100 
L 678 1631 
z
" transform="scale(0.015625)"/>
      <path id="DejaVuSans-2e" d="M 684 794 
L 1344 794 
L 1344 0 
L 684 0 
L 684 794 
z
" transform="scale(0.015625)"/>
     </defs>
     <use xlink:href="#DejaVuSans-4c"/>
     <use xlink:href="#DejaVuSans-53" x="55.712891"/>
     <use xlink:href="#DejaVuSans-54" x="119.189453"/>
     <use xlink:href="#DejaVuSans-4d" x="180.273438"/>
     <use xlink:href="#DejaVuSans-2c" x="266.552734"/>
     <use xlink:href="#DejaVuSans-20" x="298.339844"/>
     <use xlink:href="#DejaVuSans-4c" x="330.126953"/>
     <use xlink:href="#DejaVuSans-65" x="384.089844"/>
     <use xlink:href="#DejaVuSans-61" x="445.613281"/>
     <use xlink:href="#DejaVuSans-72" x="506.892578"/>
     <use xlink:href="#DejaVuSans-6e" x="546.255859"/>
     <use xlink:href="#DejaVuSans-69" x="609.634766"/>
     <use xlink:href="#DejaVuSans-6e" x="637.417969"/>
     <use xlink:href="#DejaVuSans-67" x="700.796875"/>
     <use xlink:href="#DejaVuSans-20" x="764.273438"/>
     <use xlink:href="#DejaVuSans-52" x="796.060547"/>
     <use xlink:href="#DejaVuSans-61" x="863.292969"/>
     <use xlink:href="#DejaVuSans-74" x="924.572266"/>
     <use xlink:href="#DejaVuSans-65" x="963.78125"/>
     <use xlink:href="#DejaVuSans-3d" x="1025.304688"/>
     <use xlink:href="#DejaVuSans-30" x="1109.09375"/>
     <use xlink:href="#DejaVuSans-2e" x="1172.716797"/>
     <use xlink:href="#DejaVuSans-30" x="1204.503906"/>
     <use xlink:href="#DejaVuSans-30" x="1268.126953"/>
     <use xlink:href="#DejaVuSans-30" x="1331.75"/>
     <use xlink:href="#DejaVuSans-31" x="1395.373047"/>
    </g>
   </g>
   <g id="legend_1">
    <g id="patch_7">
     <path d="M 64.6 78.82825 
L 143.08125 78.82825 
Q 145.08125 78.82825 145.08125 76.82825 
L 145.08125 48.472 
Q 145.08125 46.472 143.08125 46.472 
L 64.6 46.472 
Q 62.6 46.472 62.6 48.472 
L 62.6 76.82825 
Q 62.6 78.82825 64.6 78.82825 
z
" style="fill: #ffffff; opacity: 0.8; stroke: #cccccc; stroke-linejoin: miter"/>
    </g>
    <g id="line2d_14">
     <path d="M 66.6 54.570437 
L 76.6 54.570437 
L 86.6 54.570437 
" style="fill: none; stroke: #1f77b4; stroke-width: 1.5; stroke-linecap: square"/>
    </g>
    <g id="text_15">
     <!-- Train loss -->
     <g transform="translate(94.6 58.070437) scale(0.1 -0.1)">
      <defs>
       <path id="DejaVuSans-6c" d="M 603 4863 
L 1178 4863 
L 1178 0 
L 603 0 
L 603 4863 
z
" transform="scale(0.015625)"/>
      </defs>
      <use xlink:href="#DejaVuSans-54"/>
      <use xlink:href="#DejaVuSans-72" x="46.333984"/>
      <use xlink:href="#DejaVuSans-61" x="87.447266"/>
      <use xlink:href="#DejaVuSans-69" x="148.726562"/>
      <use xlink:href="#DejaVuSans-6e" x="176.509766"/>
      <use xlink:href="#DejaVuSans-20" x="239.888672"/>
      <use xlink:href="#DejaVuSans-6c" x="271.675781"/>
      <use xlink:href="#DejaVuSans-6f" x="299.458984"/>
      <use xlink:href="#DejaVuSans-73" x="360.640625"/>
      <use xlink:href="#DejaVuSans-73" x="412.740234"/>
     </g>
    </g>
    <g id="line2d_15">
     <path d="M 66.6 69.248562 
L 76.6 69.248562 
L 86.6 69.248562 
" style="fill: none; stroke: #ff7f0e; stroke-width: 1.5; stroke-linecap: square"/>
    </g>
    <g id="text_16">
     <!-- Eval loss -->
     <g transform="translate(94.6 72.748562) scale(0.1 -0.1)">
      <defs>
       <path id="DejaVuSans-76" d="M 191 3500 
L 800 3500 
L 1894 563 
L 2988 3500 
L 3597 3500 
L 2284 0 
L 1503 0 
L 191 3500 
z
" transform="scale(0.015625)"/>
      </defs>
      <use xlink:href="#DejaVuSans-45"/>
      <use xlink:href="#DejaVuSans-76" x="63.183594"/>
      <use xlink:href="#DejaVuSans-61" x="122.363281"/>
      <use xlink:href="#DejaVuSans-6c" x="183.642578"/>
      <use xlink:href="#DejaVuSans-20" x="211.425781"/>
      <use xlink:href="#DejaVuSans-6c" x="243.212891"/>
      <use xlink:href="#DejaVuSans-6f" x="270.996094"/>
      <use xlink:href="#DejaVuSans-73" x="332.177734"/>
      <use xlink:href="#DejaVuSans-73" x="384.277344"/>
     </g>
    </g>
   </g>
  </g>
 </g>
 <defs>
  <clipPath id="p3b42411607">
   <rect x="57.6" y="41.472" width="357.12" height="266.112"/>
  </clipPath>
 </defs>
</svg>
